<svg xmlns="http://www.w3.org/2000/svg" xmlns:xlink="http://www.w3.org/1999/xlink" preserveAspectRatio="xMidYMid meet" version="1.0" viewBox="0.3 0.8 77.6 79.5" zoomAndPan="magnify" style="fill: rgb(0, 0, 0);" original_string_length="38278"><g><g id="__id200_sfpovq26fl"><path d="M 21.761719 66.011719 C 17.382812 65.804688 14.214844 64.664062 12.046875 63.128906 C 9.421875 61.269531 9.527344 54.410156 7.878906 51.496094 C 6.15625 48.460938 3.125 47.332031 1.832031 44.871094 C 1.089844 43.457031 1.597656 41.351562 2.597656 40.207031 C 2.847656 39.921875 3.691406 39.121094 4.148438 38.867188 C 4.457031 38.695312 4.875 38.847656 4.875 39.148438 C 4.890625 40.183594 5.003906 41.523438 5.09375 42.355469 C 5.15625 42.675781 5.320312 43.0625 5.519531 43.433594 C 8.570312 49.160156 12.191406 55.921875 15.585938 61.34375 C 16.128906 62.207031 16.75 62.957031 17.492188 63.066406 C 17.800781 63.113281 18.457031 63.074219 19.179688 62.90625 C 27.175781 61.054688 52.429688 55.496094 66.5 52.0625 C 66.957031 51.9375 67.199219 51.449219 67.246094 50.824219 C 67.367188 49.226562 67.390625 45.257812 67.339844 43.828125 C 67.3125 43.09375 67.152344 42.472656 66.902344 42.105469 C 66.621094 41.691406 63.492188 39.414062 62.703125 38.71875 C 62.21875 38.296875 62.1875 38.226562 62.175781 37.8125 L 62.214844 10.109375 C 62.039062 7.417969 61.066406 7.027344 58.820312 6.089844 L 48.15625 1.964844 C 45.5 1.023438 44.882812 0.753906 41.960938 0.882812 C 36.15625 1.140625 10.792969 3.808594 8.976562 4.703125 C 8.175781 5.097656 7.714844 6.046875 7.699219 7.140625 C 7.582031 14.230469 7.6875 20.605469 7.710938 27.371094 C 7.714844 27.859375 7.742188 28.273438 7.785156 28.644531 C 7.90625 29.667969 7.992188 30.375 8.152344 31.570312 C 8.203125 31.953125 8.160156 32.289062 7.921875 32.363281 C 6.664062 32.761719 6.195312 32.921875 5.4375 33.257812 C 4.945312 33.476562 4.722656 33.761719 4.769531 34.394531 C 4.75 35.410156 4.769531 36.339844 4.769531 36.679688 C 4.773438 37.125 4.734375 37.242188 4.425781 37.457031 C 3.679688 37.972656 2.800781 38.597656 1.972656 39.484375 C 0.597656 40.957031 0.28125 43.398438 1.003906 45.242188 C 2.171875 48.234375 6.261719 48.980469 7.695312 53.335938 C 8.878906 56.917969 8.722656 61.964844 11.75 64.070312 C 14.972656 66.304688 17.429688 66.609375 21.757812 67.097656 C 22.074219 67.136719 21.882812 67.769531 21.996094 68.625 C 22.09375 69.398438 27.863281 77.65625 29.242188 79.4375 C 29.703125 80.027344 30.234375 80.300781 31.425781 79.96875 C 47.628906 75.476562 59.59375 71.988281 77.4375 66.523438 C 77.710938 66.4375 77.886719 66.226562 77.886719 65.984375 C 77.78125 65.011719 77.792969 64.132812 77.710938 63.484375 C 77.671875 63.144531 77.605469 62.863281 77.484375 62.671875 C 75.324219 59.847656 73.210938 57.132812 71 54.367188 C 69.960938 53.316406 69.941406 53.25 68.359375 53.375 C 57.957031 55.699219 36.984375 60.222656 22.308594 63.769531 C 22.128906 63.816406 21.976562 63.9375 21.976562 64.238281 C 21.96875 64.695312 21.960938 65.046875 21.921875 65.757812 C 21.910156 65.992188 21.96875 66.023438 21.761719 66.011719" fill-rule="evenodd" style="fill: inherit;"/></g><g id="__id201_sfpovq26fl"><path d="M 27.78125 74.703125 C 27.617188 74.453125 27.789062 74.492188 27.402344 74.519531 C 27.445312 74.832031 27.324219 74.671875 27.574219 74.898438 L 27.78125 74.703125" fill-rule="evenodd" style="fill: rgb(0, 0, 0);"/></g><g id="__id202_sfpovq26fl"><path d="M 16.210938 59.796875 C 16.347656 59.570312 16.527344 59.796875 16.203125 59.425781 C 15.933594 59.769531 16.128906 59.652344 16.210938 59.796875" fill-rule="evenodd" style="fill: inherit;"/></g><g id="__id203_sfpovq26fl"><path d="M 58.300781 7.621094 C 53.308594 7.554688 24.53125 10.644531 19.5625 11.726562 C 18.226562 12.019531 17.710938 11.664062 16.839844 10.933594 C 15.21875 9.578125 12.441406 7.488281 10.464844 6.101562 C 10.171875 5.894531 10.070312 5.535156 10.417969 5.429688 C 27.453125 3.21875 32.554688 2.808594 43.453125 1.917969 C 43.800781 1.890625 44.246094 1.898438 44.710938 2.054688 C 49.386719 3.632812 54.035156 5.542969 58.28125 7.160156 C 58.992188 7.429688 59.492188 7.632812 58.300781 7.621094" fill-rule="evenodd" style="fill: rgb(253, 236, 207);"/></g><g id="__id204_sfpovq26fl"><path d="M 16.050781 11.605469 C 17.351562 12.785156 17.730469 12.820312 17.554688 14.457031 C 17.519531 23.382812 17.34375 32.734375 17.371094 43.886719 C 17.375 45.277344 17.464844 45.949219 16.550781 44.414062 C 14.089844 40.28125 10.988281 34.828125 9.339844 31.636719 C 9.074219 31.121094 8.785156 28.699219 8.738281 28.070312 C 8.523438 27.128906 8.8125 7.621094 8.8125 7.582031 C 8.800781 6.53125 8.949219 6.117188 9.769531 6.882812 C 11.179688 8.191406 14.578125 10.265625 16.050781 11.605469" fill-rule="evenodd" style="fill: rgb(253, 236, 207);"/></g><g id="__id205_sfpovq26fl"><path d="M 59.390625 8.6875 C 60.207031 8.601562 60.886719 8.855469 61.101562 9.796875 C 61.21875 18.183594 61.265625 29.605469 60.949219 38.226562 C 60.917969 39.101562 60.558594 39.871094 59.574219 40.230469 C 46.882812 42.59375 33.242188 45.605469 20.585938 47.488281 C 18.09375 47.859375 18.546875 46.488281 18.589844 44.480469 C 18.675781 35.964844 18.617188 27.621094 18.601562 19.320312 C 18.59375 17.238281 18.5625 15.828125 18.675781 14.863281 C 18.894531 13.039062 19.644531 12.800781 22.128906 12.601562 C 35.597656 10.71875 45.90625 9.566406 59.390625 8.6875" fill-rule="evenodd" style="fill: rgb(253, 236, 207);"/></g><g id="__id206_sfpovq26fl"><path d="M 17.972656 48.332031 C 18.296875 48.554688 18.796875 48.648438 19.390625 48.65625 C 20.992188 48.679688 58.757812 41.378906 60.222656 41.089844 C 60.496094 41.035156 60.746094 40.898438 60.972656 40.742188 C 61.335938 40.492188 61.574219 40.277344 61.917969 40.042969 C 62.25 39.816406 62.382812 39.953125 62.710938 40.164062 C 63.335938 40.5625 64.207031 41.230469 64.683594 41.789062 C 65.109375 42.28125 65.085938 42.378906 64.5625 42.484375 C 63.167969 42.765625 61.929688 42.996094 60.65625 43.25 C 47.410156 45.894531 34.367188 48.40625 20.476562 51.148438 C 18.953125 51.390625 17.453125 52.257812 16.476562 50.65625 C 13.644531 46.015625 8.414062 38.832031 6.390625 34.613281 C 6.144531 34.105469 6.886719 33.890625 7.558594 33.6875 C 8.765625 33.328125 8.996094 33.21875 9.320312 33.886719 C 11.09375 37.535156 14.445312 42.609375 17.082031 47.433594 C 17.285156 47.804688 17.613281 48.089844 17.972656 48.332031" fill-rule="evenodd" style="fill: rgb(253, 236, 207);"/></g><g id="__id207_sfpovq26fl"><path d="M 16.234375 52.136719 C 16.421875 52.527344 16.535156 52.894531 16.550781 53.257812 C 16.664062 55.679688 16.691406 57.777344 16.617188 59.222656 C 16.554688 60.503906 16.34375 60.53125 15.785156 59.632812 C 13.742188 56.355469 7.539062 44.730469 6.1875 42.382812 C 6.171875 42.359375 5.847656 38.265625 5.890625 36.503906 C 5.898438 36.109375 6.164062 35.992188 6.386719 36.382812 C 7.960938 39.855469 15.789062 51.21875 16.234375 52.136719" fill-rule="evenodd" style="fill: rgb(253, 236, 207);"/></g><g id="__id208_sfpovq26fl"><path d="M 65.292969 43.402344 C 66.480469 43.324219 66.242188 44.765625 66.246094 45.265625 C 66.257812 46.878906 66.144531 48.601562 66.1875 50.363281 C 66.175781 51.121094 66.066406 51.359375 65.261719 51.574219 C 49.933594 55.40625 34.273438 58.394531 18.84375 61.9375 C 17.8125 62.175781 17.691406 61.984375 17.542969 60.847656 C 17.503906 58.425781 17.683594 56.046875 17.671875 53.667969 C 17.667969 53.101562 17.683594 52.777344 18.328125 52.652344 C 36.644531 49.105469 51.910156 45.945312 65.292969 43.402344" fill-rule="evenodd" style="fill: rgb(253, 236, 207);"/></g><g id="__id209_sfpovq26fl"><path d="M 23.015625 68.675781 C 22.9375 68.195312 22.921875 67.125 22.984375 66.503906 C 23.039062 65.960938 23.035156 66.054688 23.316406 66.453125 C 24.296875 67.851562 27.777344 73.171875 29.683594 76.316406 C 29.777344 76.507812 29.792969 76.773438 29.796875 76.972656 C 29.804688 77.316406 29.773438 77.640625 29.738281 77.980469 C 29.707031 78.269531 29.65625 78.390625 29.4375 78.085938 C 28.359375 76.574219 24.171875 70.664062 23.238281 69.179688 C 23.121094 68.988281 23.050781 68.898438 23.015625 68.675781 Z M 75.066406 63.394531 C 60.578125 67.777344 46.71875 71.71875 32.785156 75.546875 C 30.089844 76.269531 30.945312 76.609375 27.929688 71.925781 C 26.628906 69.785156 24.898438 67.460938 23.800781 65.347656 C 23.558594 64.878906 23.585938 64.394531 24.90625 64.1875 C 38.222656 61.019531 54.378906 57.394531 68.582031 54.28125 C 69.132812 54.164062 69.523438 54.21875 70.183594 54.867188 C 71.027344 55.695312 74.445312 60 75.710938 62.058594 C 76.4375 63.242188 76.296875 63.023438 75.066406 63.394531 Z M 76.785156 64.28125 C 76.886719 64.671875 76.804688 65.121094 76.847656 65.402344 C 76.855469 65.476562 76.828125 65.601562 76.648438 65.648438 C 62.480469 69.789062 47.574219 74.625 31.167969 78.898438 C 30.960938 78.953125 30.851562 78.894531 30.855469 78.523438 C 30.855469 78.1875 30.882812 77.789062 30.886719 77.398438 C 30.890625 77.226562 30.890625 77.117188 31.109375 77.054688 C 48.597656 72.175781 63.515625 67.605469 76.378906 64.082031 C 76.59375 64.023438 76.71875 64.03125 76.785156 64.28125" fill-rule="evenodd" style="fill: rgb(253, 236, 207);"/></g><g id="__id210_sfpovq26fl"><path d="M 67.917969 55.605469 C 63.605469 56.550781 35.046875 63.058594 27.695312 64.820312 C 26.808594 65.03125 26.757812 65.839844 26.96875 66.28125 C 27.703125 67.53125 30.28125 71.339844 31.144531 72.578125 C 31.933594 73.71875 32.179688 73.71875 33.875 73.226562 C 46.660156 69.496094 58.667969 66.324219 72.453125 62.480469 C 73.1875 62.273438 73.410156 61.914062 72.957031 61.070312 C 72.289062 59.832031 70.210938 57.421875 69.191406 56.269531 C 68.714844 55.726562 68.710938 55.59375 67.917969 55.605469" fill-rule="evenodd" style="fill: inherit;"/></g><g id="__id211_sfpovq26fl"><path d="M 24.992188 15.460938 C 22.886719 16.023438 22.394531 16.832031 22.394531 18.773438 C 22.394531 26.121094 22.257812 33.972656 22.449219 39.867188 C 22.542969 42.707031 24.488281 43.152344 27.324219 42.917969 C 36.90625 42.128906 50.65625 40.070312 55.804688 37.894531 C 56.644531 37.539062 57.347656 37.070312 57.53125 36.023438 C 58.828125 28.578125 57.996094 18.789062 57.621094 14.746094 C 57.453125 13.207031 56.402344 12.320312 55.191406 12.320312 C 49.503906 12.359375 30.515625 14.074219 24.992188 15.460938" fill-rule="evenodd" style="fill: inherit;"/></g><g id="__id212_sfpovq26fl"><path d="M 56.890625 15.75 C 57.148438 20.105469 57.78125 30.117188 56.414062 35.648438 C 56.328125 36 56 36.34375 55.476562 36.679688 C 50.800781 39.667969 30.546875 41.851562 27.101562 42.070312 C 24.242188 42.25 23.328125 41.703125 23.328125 39.316406 C 22.9375 32.160156 23.148438 23.222656 23.292969 18.753906 C 23.292969 17.332031 24.226562 16.4375 25.433594 16.253906 C 33.160156 15.070312 51.40625 13.097656 55.113281 13.226562 C 56.34375 13.269531 56.820312 14.730469 56.890625 15.75" fill-rule="evenodd" style="fill: rgb(252, 156, 44);"/></g><g id="__id213_sfpovq26fl"><path d="M 40.910156 52.824219 C 40.980469 52.558594 40.898438 51.292969 40.832031 51.058594 C 40.683594 50.5 39.988281 50.683594 39.582031 50.765625 C 33.667969 51.832031 27.554688 52.933594 21.042969 54.335938 C 20.476562 54.460938 20.042969 54.730469 20.003906 55.464844 C 19.964844 56.207031 20.007812 56.519531 20 57.019531 C 19.992188 57.554688 20.460938 57.578125 21.421875 57.402344 C 27.507812 56.289062 33.929688 55.214844 39.914062 53.71875 C 40.457031 53.582031 40.84375 53.371094 40.910156 52.824219" fill-rule="evenodd" style="fill: inherit;"/></g><g id="__id214_sfpovq26fl"><path d="M 45.53125 50.316406 C 50.1875 49.3125 54.730469 48.457031 60.167969 47.390625 C 60.507812 47.324219 60.308594 46.496094 59.988281 46.5625 C 56.25 47.246094 52.707031 48.023438 45.40625 49.464844 C 44.902344 49.558594 44.964844 50.417969 45.53125 50.316406" fill-rule="evenodd" style="fill: inherit;"/></g><g id="__id215_sfpovq26fl"><path d="M 63.324219 47.867188 C 62.902344 47.949219 62.539062 48.4375 62.671875 48.914062 C 62.785156 49.328125 63.082031 49.679688 63.695312 49.566406 C 64.21875 49.46875 64.46875 49.027344 64.425781 48.625 C 64.378906 48.15625 63.980469 47.742188 63.324219 47.867188" fill-rule="evenodd" style="fill: inherit;"/></g><g id="__id216_sfpovq26fl"><path d="M 62.558594 46.792969 C 63.148438 46.628906 63.824219 46.554688 64.492188 46.339844 C 64.746094 46.257812 64.667969 45.671875 64.363281 45.738281 C 64.023438 45.808594 62.652344 46.082031 62.28125 46.179688 C 61.972656 46.261719 61.871094 46.984375 62.558594 46.792969" fill-rule="evenodd" style="fill: inherit;"/></g><g id="__id217_sfpovq26fl"><path d="M 41.96875 63.71875 C 41.164062 63.925781 40.695312 64.09375 40.023438 64.21875 C 39.886719 64.242188 39.667969 64.285156 39.511719 64.113281 C 39.234375 63.808594 39.074219 63.703125 38.972656 63.359375 C 38.921875 63.203125 38.957031 63.082031 39.070312 63.027344 C 39.535156 62.792969 40.246094 62.679688 40.835938 62.597656 C 41.144531 62.558594 41.445312 62.523438 41.59375 62.679688 C 41.746094 62.839844 42.089844 63.214844 42.105469 63.480469 C 42.113281 63.582031 42.085938 63.6875 41.96875 63.71875 Z M 31.453125 66.152344 C 30.519531 66.445312 29.96875 66.671875 29.1875 66.859375 C 29.027344 66.894531 28.773438 66.957031 28.589844 66.769531 C 28.269531 66.433594 28.082031 66.320312 27.960938 65.925781 C 27.90625 65.742188 27.945312 65.605469 28.078125 65.53125 C 28.617188 65.230469 29.445312 65.050781 30.132812 64.921875 C 30.492188 64.851562 30.839844 64.792969 31.019531 64.96875 C 31.195312 65.144531 31.59375 65.558594 31.613281 65.871094 C 31.621094 65.984375 31.585938 66.109375 31.453125 66.152344 Z M 35.464844 65.246094 C 34.585938 65.492188 34.066406 65.6875 33.335938 65.839844 C 33.183594 65.871094 32.945312 65.921875 32.78125 65.738281 C 32.492188 65.417969 32.320312 65.308594 32.21875 64.9375 C 32.171875 64.769531 32.210938 64.636719 32.339844 64.570312 C 32.851562 64.308594 33.625 64.164062 34.269531 64.0625 C 34.605469 64.007812 34.933594 63.960938 35.09375 64.128906 C 35.253906 64.296875 35.613281 64.699219 35.625 64.988281 C 35.628906 65.09375 35.59375 65.210938 35.464844 65.246094 Z M 32.636719 68.105469 C 31.757812 68.378906 31.242188 68.589844 30.511719 68.765625 C 30.359375 68.800781 30.121094 68.859375 29.949219 68.683594 C 29.652344 68.367188 29.472656 68.261719 29.359375 67.894531 C 29.308594 67.722656 29.34375 67.589844 29.472656 67.519531 C 29.976562 67.238281 30.753906 67.074219 31.398438 66.949219 C 31.734375 66.886719 32.0625 66.832031 32.230469 66.992188 C 32.394531 67.15625 32.769531 67.550781 32.789062 67.839844 C 32.796875 67.949219 32.761719 68.066406 32.636719 68.105469 Z M 38.460938 64.480469 C 37.800781 64.652344 37.410156 64.800781 36.863281 64.894531 C 36.75 64.914062 36.570312 64.945312 36.445312 64.765625 C 36.230469 64.445312 36.097656 64.332031 36.023438 63.976562 C 35.988281 63.816406 36.019531 63.699219 36.113281 63.644531 C 36.496094 63.433594 37.203125 63.238281 37.6875 63.1875 C 37.941406 63.160156 38.0625 63.25 38.183594 63.414062 C 38.304688 63.582031 38.574219 63.980469 38.582031 64.25 C 38.585938 64.351562 38.558594 64.457031 38.460938 64.480469 Z M 45.683594 62.691406 C 44.878906 62.898438 44.40625 63.066406 43.738281 63.191406 C 43.601562 63.214844 43.382812 63.257812 43.226562 63.085938 C 42.949219 62.78125 42.789062 62.675781 42.683594 62.332031 C 42.636719 62.175781 42.671875 62.054688 42.785156 61.996094 C 43.25 61.765625 43.960938 61.652344 44.550781 61.570312 C 44.859375 61.53125 45.15625 61.492188 45.308594 61.652344 C 45.460938 61.808594 45.804688 62.1875 45.820312 62.453125 C 45.828125 62.554688 45.796875 62.660156 45.683594 62.691406 Z M 49.40625 61.820312 C 48.605469 62.027344 48.132812 62.195312 47.464844 62.320312 C 47.324219 62.347656 47.105469 62.386719 46.949219 62.214844 C 46.675781 61.914062 46.511719 61.804688 46.410156 61.464844 C 46.363281 61.304688 46.394531 61.1875 46.511719 61.128906 C 46.972656 60.898438 47.683594 60.78125 48.277344 60.703125 C 48.582031 60.660156 48.882812 60.625 49.035156 60.785156 C 49.1875 60.941406 49.527344 61.320312 49.546875 61.585938 C 49.550781 61.683594 49.523438 61.789062 49.40625 61.820312 Z M 53.050781 61.027344 C 52.25 61.234375 51.777344 61.402344 51.105469 61.527344 C 50.96875 61.550781 50.75 61.59375 50.59375 61.421875 C 50.320312 61.121094 50.15625 61.011719 50.054688 60.671875 C 50.007812 60.511719 50.039062 60.394531 50.15625 60.335938 C 50.617188 60.101562 51.328125 59.988281 51.917969 59.910156 C 52.226562 59.867188 52.527344 59.832031 52.679688 59.992188 C 52.832031 60.148438 53.171875 60.523438 53.191406 60.792969 C 53.195312 60.890625 53.167969 60.996094 53.050781 61.027344 Z M 56.484375 60.132812 C 55.71875 60.328125 55.269531 60.488281 54.632812 60.609375 C 54.5 60.632812 54.292969 60.671875 54.140625 60.507812 C 53.878906 60.222656 53.726562 60.117188 53.628906 59.792969 C 53.582031 59.640625 53.613281 59.527344 53.722656 59.472656 C 54.164062 59.25 54.84375 59.144531 55.40625 59.066406 C 55.699219 59.027344 55.984375 58.992188 56.128906 59.144531 C 56.273438 59.292969 56.601562 59.652344 56.617188 59.90625 C 56.625 60.003906 56.59375 60.101562 56.484375 60.132812 Z M 59.644531 59.328125 C 58.953125 59.503906 58.546875 59.652344 57.96875 59.757812 C 57.847656 59.78125 57.660156 59.816406 57.527344 59.667969 C 57.289062 59.40625 57.148438 59.3125 57.0625 59.019531 C 57.019531 58.882812 57.046875 58.78125 57.148438 58.730469 C 57.546875 58.53125 58.160156 58.429688 58.667969 58.363281 C 58.933594 58.328125 59.191406 58.296875 59.324219 58.433594 C 59.457031 58.570312 59.75 58.894531 59.765625 59.125 C 59.773438 59.210938 59.746094 59.300781 59.644531 59.328125 Z M 62.964844 58.53125 C 62.269531 58.710938 61.863281 58.855469 61.285156 58.964844 C 61.167969 58.984375 60.976562 59.023438 60.84375 58.875 C 60.605469 58.613281 60.46875 58.519531 60.378906 58.226562 C 60.335938 58.089844 60.367188 57.984375 60.464844 57.9375 C 60.863281 57.734375 61.476562 57.636719 61.988281 57.566406 C 62.253906 57.53125 62.511719 57.503906 62.640625 57.640625 C 62.773438 57.773438 63.066406 58.101562 63.082031 58.332031 C 63.089844 58.414062 63.0625 58.507812 62.964844 58.53125 Z M 65.714844 57.734375 C 65.109375 57.890625 64.75 58.019531 64.246094 58.113281 C 64.140625 58.132812 63.976562 58.164062 63.855469 58.035156 C 63.648438 57.804688 63.527344 57.722656 63.449219 57.464844 C 63.410156 57.34375 63.4375 57.257812 63.523438 57.210938 C 63.875 57.035156 64.414062 56.949219 64.859375 56.890625 C 65.09375 56.859375 65.320312 56.832031 65.433594 56.949219 C 65.550781 57.070312 65.808594 57.355469 65.820312 57.558594 C 65.828125 57.632812 65.804688 57.714844 65.714844 57.734375 Z M 68.347656 56.96875 C 67.835938 57.101562 67.535156 57.207031 67.109375 57.289062 C 67.019531 57.304688 66.878906 57.332031 66.78125 57.222656 C 66.605469 57.027344 66.5 56.960938 66.433594 56.742188 C 66.40625 56.640625 66.425781 56.5625 66.5 56.527344 C 66.796875 56.378906 67.25 56.304688 67.625 56.253906 C 67.824219 56.226562 68.015625 56.207031 68.109375 56.304688 C 68.207031 56.40625 68.425781 56.648438 68.4375 56.820312 C 68.441406 56.882812 68.421875 56.949219 68.347656 56.96875 Z M 43.046875 65.640625 C 42.246094 65.851562 41.773438 66.027344 41.105469 66.15625 C 40.964844 66.183594 40.746094 66.226562 40.589844 66.058594 C 40.316406 65.757812 40.15625 65.652344 40.050781 65.308594 C 40.003906 65.152344 40.039062 65.03125 40.152344 64.972656 C 40.617188 64.738281 41.324219 64.617188 41.917969 64.53125 C 42.222656 64.488281 42.523438 64.449219 42.675781 64.605469 C 42.828125 64.761719 43.167969 65.136719 43.1875 65.402344 C 43.195312 65.5 43.164062 65.609375 43.046875 65.640625 Z M 36.542969 67.226562 C 35.667969 67.480469 35.148438 67.683594 34.414062 67.839844 C 34.265625 67.875 34.027344 67.925781 33.863281 67.746094 C 33.574219 67.429688 33.398438 67.316406 33.300781 66.949219 C 33.253906 66.78125 33.292969 66.648438 33.417969 66.582031 C 33.929688 66.3125 34.707031 66.164062 35.351562 66.054688 C 35.6875 65.996094 36.015625 65.949219 36.175781 66.117188 C 36.332031 66.28125 36.695312 66.679688 36.703125 66.96875 C 36.707031 67.074219 36.671875 67.191406 36.542969 67.226562 Z M 39.542969 66.433594 C 38.882812 66.613281 38.492188 66.765625 37.941406 66.863281 C 37.828125 66.882812 37.648438 66.917969 37.527344 66.738281 C 37.308594 66.421875 37.179688 66.304688 37.101562 65.957031 C 37.066406 65.792969 37.097656 65.671875 37.195312 65.621094 C 37.578125 65.402344 38.28125 65.203125 38.769531 65.148438 C 39.019531 65.117188 39.144531 65.207031 39.265625 65.371094 C 39.382812 65.539062 39.652344 65.933594 39.660156 66.203125 C 39.664062 66.304688 39.636719 66.410156 39.542969 66.433594 Z M 46.761719 64.578125 C 45.960938 64.789062 45.488281 64.964844 44.820312 65.09375 C 44.679688 65.121094 44.460938 65.164062 44.304688 64.996094 C 44.03125 64.695312 43.867188 64.589844 43.765625 64.246094 C 43.71875 64.089844 43.753906 63.96875 43.867188 63.910156 C 44.332031 63.675781 45.039062 63.554688 45.632812 63.46875 C 45.9375 63.425781 46.238281 63.386719 46.390625 63.542969 C 46.542969 63.699219 46.882812 64.074219 46.902344 64.339844 C 46.910156 64.441406 46.878906 64.546875 46.761719 64.578125 Z M 50.488281 63.671875 C 49.683594 63.886719 49.210938 64.0625 48.542969 64.191406 C 48.40625 64.21875 48.1875 64.261719 48.03125 64.089844 C 47.757812 63.792969 47.59375 63.6875 47.492188 63.34375 C 47.441406 63.1875 47.476562 63.066406 47.589844 63.007812 C 48.054688 62.773438 48.765625 62.652344 49.355469 62.566406 C 49.664062 62.519531 49.964844 62.484375 50.113281 62.640625 C 50.265625 62.796875 50.609375 63.171875 50.625 63.4375 C 50.632812 63.535156 50.601562 63.640625 50.488281 63.671875 Z M 54.132812 62.84375 C 53.328125 63.058594 52.855469 63.234375 52.1875 63.363281 C 52.050781 63.390625 51.832031 63.433594 51.675781 63.265625 C 51.398438 62.964844 51.238281 62.859375 51.136719 62.515625 C 51.085938 62.359375 51.121094 62.238281 51.234375 62.179688 C 51.699219 61.945312 52.410156 61.824219 53 61.738281 C 53.308594 61.695312 53.605469 61.65625 53.757812 61.8125 C 53.910156 61.96875 54.253906 62.34375 54.269531 62.609375 C 54.277344 62.707031 54.246094 62.816406 54.132812 62.84375 Z M 57.566406 61.917969 C 56.800781 62.125 56.347656 62.289062 55.710938 62.414062 C 55.578125 62.4375 55.371094 62.480469 55.222656 62.316406 C 54.960938 62.03125 54.808594 61.929688 54.707031 61.605469 C 54.664062 61.457031 54.695312 61.339844 54.804688 61.285156 C 55.246094 61.058594 55.921875 60.945312 56.484375 60.863281 C 56.78125 60.820312 57.066406 60.785156 57.210938 60.933594 C 57.355469 61.085938 57.679688 61.441406 57.699219 61.695312 C 57.703125 61.789062 57.675781 61.890625 57.566406 61.917969 Z M 60.726562 61.085938 C 60.035156 61.269531 59.625 61.417969 59.050781 61.53125 C 58.929688 61.554688 58.742188 61.59375 58.605469 61.445312 C 58.371094 61.1875 58.230469 61.097656 58.140625 60.800781 C 58.097656 60.664062 58.128906 60.5625 58.226562 60.511719 C 58.628906 60.308594 59.238281 60.203125 59.75 60.128906 C 60.015625 60.089844 60.273438 60.058594 60.40625 60.195312 C 60.535156 60.328125 60.832031 60.652344 60.84375 60.878906 C 60.851562 60.964844 60.828125 61.058594 60.726562 61.085938 Z M 64.042969 60.261719 C 63.351562 60.445312 62.945312 60.59375 62.367188 60.707031 C 62.246094 60.730469 62.058594 60.769531 61.925781 60.621094 C 61.6875 60.363281 61.546875 60.269531 61.457031 59.976562 C 61.417969 59.839844 61.445312 59.738281 61.542969 59.6875 C 61.945312 59.480469 62.558594 59.378906 63.066406 59.304688 C 63.332031 59.265625 63.589844 59.234375 63.722656 59.367188 C 63.851562 59.503906 64.148438 59.828125 64.164062 60.054688 C 64.167969 60.140625 64.144531 60.234375 64.042969 60.261719 Z M 66.914062 59.367188 C 66.304688 59.53125 65.949219 59.660156 65.441406 59.757812 C 65.335938 59.78125 65.171875 59.8125 65.054688 59.683594 C 64.847656 59.457031 64.722656 59.378906 64.644531 59.117188 C 64.609375 59 64.636719 58.910156 64.722656 58.863281 C 65.074219 58.683594 65.609375 58.59375 66.058594 58.527344 C 66.289062 58.496094 66.515625 58.46875 66.632812 58.585938 C 66.746094 58.703125 67.003906 58.988281 67.019531 59.1875 C 67.023438 59.261719 67 59.34375 66.914062 59.367188 Z M 69.679688 58.601562 C 69.101562 58.753906 68.761719 58.882812 68.277344 58.972656 C 68.175781 58.992188 68.019531 59.027344 67.90625 58.902344 C 67.710938 58.6875 67.589844 58.609375 67.519531 58.363281 C 67.484375 58.25 67.507812 58.164062 67.589844 58.121094 C 67.925781 57.949219 68.4375 57.863281 68.863281 57.800781 C 69.085938 57.769531 69.300781 57.742188 69.414062 57.855469 C 69.523438 57.96875 69.769531 58.238281 69.78125 58.429688 C 69.785156 58.5 69.765625 58.578125 69.679688 58.601562 Z M 35.324219 69.691406 C 34.449219 69.964844 32.714844 70.507812 31.984375 70.683594 C 31.832031 70.71875 31.59375 70.777344 31.421875 70.597656 C 31.121094 70.285156 30.945312 70.175781 30.832031 69.808594 C 30.78125 69.636719 30.816406 69.503906 30.941406 69.433594 C 31.449219 69.15625 33.441406 68.660156 34.085938 68.539062 C 34.421875 68.472656 34.75 68.417969 34.914062 68.582031 C 35.082031 68.746094 35.457031 69.136719 35.476562 69.429688 C 35.484375 69.535156 35.449219 69.652344 35.324219 69.691406 Z M 38.78125 68.640625 C 38.171875 68.800781 37.253906 69.121094 36.75 69.210938 C 36.644531 69.226562 36.480469 69.257812 36.367188 69.09375 C 36.167969 68.804688 36.050781 68.699219 35.980469 68.375 C 35.945312 68.226562 35.976562 68.117188 36.0625 68.070312 C 36.414062 67.871094 37.621094 67.511719 38.070312 67.460938 C 38.300781 67.429688 38.414062 67.515625 38.523438 67.664062 C 38.632812 67.816406 38.882812 68.179688 38.886719 68.429688 C 38.890625 68.519531 38.867188 68.617188 38.78125 68.640625 Z M 42.382812 67.75 C 41.792969 67.882812 40.90625 68.15625 40.417969 68.222656 C 40.316406 68.238281 40.15625 68.261719 40.046875 68.097656 C 39.855469 67.808594 39.738281 67.703125 39.671875 67.390625 C 39.640625 67.242188 39.667969 67.140625 39.753906 67.09375 C 40.09375 66.917969 41.261719 66.613281 41.691406 66.582031 C 41.917969 66.5625 42.027344 66.648438 42.132812 66.796875 C 42.238281 66.949219 42.480469 67.308594 42.484375 67.550781 C 42.488281 67.640625 42.464844 67.730469 42.382812 67.75 Z M 45.691406 66.851562 C 45.125 66.980469 44.261719 67.242188 43.792969 67.308594 C 43.695312 67.324219 43.539062 67.34375 43.433594 67.1875 C 43.246094 66.90625 43.136719 66.804688 43.070312 66.5 C 43.039062 66.359375 43.066406 66.261719 43.148438 66.21875 C 43.476562 66.042969 44.609375 65.753906 45.027344 65.71875 C 45.242188 65.703125 45.347656 65.785156 45.453125 65.929688 C 45.554688 66.074219 45.785156 66.425781 45.792969 66.65625 C 45.796875 66.742188 45.773438 66.832031 45.691406 66.851562 Z M 48.863281 66.046875 C 48.296875 66.175781 47.636719 66.390625 47.167969 66.457031 C 47.070312 66.46875 46.914062 66.492188 46.808594 66.335938 C 46.621094 66.054688 46.511719 65.953125 46.445312 65.648438 C 46.414062 65.507812 46.441406 65.40625 46.523438 65.363281 C 46.851562 65.191406 47.78125 64.949219 48.195312 64.914062 C 48.414062 64.898438 48.519531 64.976562 48.621094 65.125 C 48.726562 65.269531 48.957031 65.621094 48.964844 65.851562 C 48.96875 65.9375 48.941406 66.03125 48.863281 66.046875 Z M 51.980469 65.230469 C 51.414062 65.355469 50.757812 65.574219 50.285156 65.636719 C 50.1875 65.652344 50.035156 65.675781 49.929688 65.515625 C 49.742188 65.234375 49.628906 65.132812 49.566406 64.832031 C 49.535156 64.691406 49.5625 64.589844 49.644531 64.546875 C 49.972656 64.371094 50.898438 64.128906 51.316406 64.097656 C 51.53125 64.078125 51.640625 64.160156 51.742188 64.308594 C 51.84375 64.453125 52.078125 64.800781 52.082031 65.035156 C 52.085938 65.121094 52.0625 65.210938 51.980469 65.230469 Z M 55.078125 64.398438 C 54.511719 64.527344 53.851562 64.742188 53.382812 64.808594 C 53.285156 64.820312 53.128906 64.84375 53.023438 64.683594 C 52.835938 64.40625 52.726562 64.304688 52.660156 64 C 52.632812 63.859375 52.65625 63.757812 52.738281 63.714844 C 53.066406 63.542969 53.996094 63.300781 54.410156 63.265625 C 54.628906 63.25 54.734375 63.332031 54.839844 63.476562 C 54.941406 63.621094 55.171875 63.972656 55.179688 64.203125 C 55.179688 64.289062 55.15625 64.382812 55.078125 64.398438 Z M 58.121094 63.605469 C 57.617188 63.71875 57.03125 63.910156 56.609375 63.96875 C 56.523438 63.980469 56.386719 64 56.289062 63.859375 C 56.125 63.609375 56.023438 63.519531 55.964844 63.246094 C 55.941406 63.121094 55.960938 63.03125 56.035156 62.992188 C 56.328125 62.839844 57.15625 62.625 57.527344 62.59375 C 57.71875 62.578125 57.816406 62.652344 57.90625 62.78125 C 58 62.910156 58.207031 63.222656 58.210938 63.429688 C 58.214844 63.507812 58.191406 63.589844 58.121094 63.605469 Z M 60.816406 62.871094 C 60.3125 62.984375 59.722656 63.179688 59.304688 63.234375 C 59.21875 63.246094 59.082031 63.269531 58.984375 63.128906 C 58.820312 62.878906 58.71875 62.785156 58.660156 62.515625 C 58.636719 62.390625 58.65625 62.300781 58.730469 62.261719 C 59.023438 62.105469 59.851562 61.890625 60.222656 61.863281 C 60.414062 61.84375 60.511719 61.917969 60.601562 62.046875 C 60.695312 62.179688 60.902344 62.492188 60.90625 62.699219 C 60.910156 62.773438 60.886719 62.855469 60.816406 62.871094 Z M 63.667969 62.085938 C 63.164062 62.199219 62.378906 62.4375 61.960938 62.496094 C 61.871094 62.507812 61.734375 62.527344 61.640625 62.386719 C 61.472656 62.140625 61.371094 62.046875 61.316406 61.777344 C 61.289062 61.652344 61.3125 61.558594 61.382812 61.523438 C 61.675781 61.367188 62.703125 61.105469 63.078125 61.074219 C 63.269531 61.058594 63.363281 61.132812 63.457031 61.261719 C 63.546875 61.390625 63.753906 61.703125 63.761719 61.910156 C 63.761719 61.988281 63.742188 62.070312 63.667969 62.085938 Z M 66.570312 61.328125 C 66.097656 61.4375 65.359375 61.660156 64.964844 61.714844 C 64.882812 61.726562 64.753906 61.746094 64.664062 61.613281 C 64.511719 61.378906 64.417969 61.292969 64.363281 61.039062 C 64.335938 60.921875 64.359375 60.839844 64.425781 60.800781 C 64.703125 60.660156 65.664062 60.410156 66.011719 60.382812 C 66.195312 60.367188 66.28125 60.4375 66.367188 60.558594 C 66.453125 60.679688 66.648438 60.972656 66.652344 61.167969 C 66.65625 61.238281 66.636719 61.316406 66.570312 61.328125 Z M 70.609375 60.136719 C 70.136719 60.242188 68.023438 60.867188 67.628906 60.921875 C 67.546875 60.929688 67.417969 60.953125 67.328125 60.820312 C 67.171875 60.585938 67.078125 60.5 67.027344 60.246094 C 67 60.128906 67.023438 60.042969 67.089844 60.007812 C 67.363281 59.863281 69.707031 59.21875 70.054688 59.191406 C 70.234375 59.175781 70.324219 59.246094 70.410156 59.367188 C 70.496094 59.488281 70.691406 59.78125 70.695312 59.976562 C 70.699219 60.046875 70.675781 60.121094 70.609375 60.136719 Z M 36.257812 71.5625 C 35.382812 71.832031 34.058594 72.269531 33.328125 72.445312 C 33.179688 72.480469 32.9375 72.539062 32.769531 72.359375 C 32.46875 72.046875 32.289062 71.9375 32.179688 71.570312 C 32.125 71.398438 32.164062 71.265625 32.289062 71.199219 C 32.792969 70.917969 34.375 70.53125 35.019531 70.40625 C 35.355469 70.34375 35.6875 70.289062 35.851562 70.449219 C 36.015625 70.613281 36.390625 71.007812 36.410156 71.296875 C 36.417969 71.402344 36.382812 71.523438 36.257812 71.5625 Z M 39.714844 70.511719 C 39.109375 70.671875 38.1875 70.988281 37.683594 71.078125 C 37.578125 71.097656 37.414062 71.125 37.300781 70.960938 C 37.101562 70.671875 36.984375 70.566406 36.914062 70.246094 C 36.882812 70.097656 36.910156 69.988281 36.996094 69.9375 C 37.347656 69.738281 38.558594 69.382812 39.003906 69.328125 C 39.234375 69.300781 39.347656 69.382812 39.457031 69.535156 C 39.566406 69.6875 39.816406 70.050781 39.824219 70.296875 C 39.824219 70.390625 39.800781 70.488281 39.714844 70.511719 Z M 43.316406 69.617188 C 42.730469 69.753906 41.839844 70.023438 41.351562 70.09375 C 41.25 70.105469 41.09375 70.128906 40.980469 69.964844 C 40.789062 69.675781 40.675781 69.570312 40.605469 69.257812 C 40.574219 69.113281 40.601562 69.007812 40.6875 68.964844 C 41.027344 68.785156 42.195312 68.484375 42.628906 68.449219 C 42.851562 68.429688 42.960938 68.515625 43.066406 68.667969 C 43.171875 68.816406 43.414062 69.179688 43.421875 69.417969 C 43.421875 69.507812 43.398438 69.601562 43.316406 69.617188 Z M 46.625 68.71875 C 46.058594 68.847656 45.199219 69.113281 44.726562 69.179688 C 44.628906 69.191406 44.472656 69.214844 44.367188 69.054688 C 44.183594 68.777344 44.070312 68.671875 44.003906 68.371094 C 43.972656 68.230469 44 68.128906 44.082031 68.085938 C 44.410156 67.914062 45.542969 67.621094 45.960938 67.589844 C 46.175781 67.570312 46.285156 67.652344 46.386719 67.796875 C 46.488281 67.945312 46.71875 68.292969 46.726562 68.527344 C 46.730469 68.613281 46.707031 68.703125 46.625 68.71875 Z M 63.640625 64.078125 C 63.074219 64.207031 48.429688 68.304688 47.957031 68.367188 C 47.859375 68.382812 47.707031 68.40625 47.601562 68.246094 C 47.414062 67.96875 47.300781 67.863281 47.238281 67.558594 C 47.207031 67.417969 47.234375 67.316406 47.316406 67.277344 C 47.644531 67.101562 62.558594 62.980469 62.976562 62.949219 C 63.191406 62.929688 63.296875 63.011719 63.402344 63.15625 C 63.503906 63.304688 63.734375 63.652344 63.742188 63.886719 C 63.746094 63.96875 63.722656 64.0625 63.640625 64.078125 Z M 66.347656 63.082031 C 65.855469 63.214844 65.105469 63.472656 64.695312 63.546875 C 64.613281 63.558594 64.476562 63.585938 64.386719 63.449219 C 64.222656 63.214844 64.125 63.128906 64.070312 62.867188 C 64.042969 62.746094 64.066406 62.65625 64.136719 62.617188 C 64.421875 62.457031 65.40625 62.164062 65.769531 62.121094 C 65.957031 62.097656 66.050781 62.164062 66.140625 62.289062 C 66.230469 62.410156 66.429688 62.707031 66.4375 62.910156 C 66.441406 62.984375 66.417969 63.0625 66.347656 63.082031 Z M 69.28125 62.355469 C 68.804688 62.464844 68.082031 62.6875 67.683594 62.742188 C 67.601562 62.753906 67.472656 62.773438 67.382812 62.640625 C 67.226562 62.40625 67.132812 62.316406 67.078125 62.0625 C 67.050781 61.945312 67.074219 61.859375 67.140625 61.824219 C 67.417969 61.679688 68.371094 61.433594 68.722656 61.40625 C 68.902344 61.390625 68.992188 61.457031 69.082031 61.582031 C 69.167969 61.703125 69.359375 61.996094 69.367188 62.195312 C 69.367188 62.265625 69.347656 62.34375 69.28125 62.355469 Z M 71.976562 61.625 C 71.515625 61.730469 70.816406 61.945312 70.429688 61.996094 C 70.351562 62.007812 70.226562 62.027344 70.140625 61.898438 C 69.988281 61.671875 69.898438 61.585938 69.84375 61.339844 C 69.820312 61.226562 69.839844 61.144531 69.90625 61.109375 C 70.175781 60.96875 71.09375 60.730469 71.433594 60.703125 C 71.613281 60.6875 71.699219 60.753906 71.78125 60.875 C 71.867188 60.992188 72.054688 61.277344 72.058594 61.464844 C 72.0625 61.539062 72.042969 61.609375 71.976562 61.625" fill-rule="evenodd" style="fill: rgb(253, 236, 207);"/></g><g id="__id218_sfpovq26fl"><path d="M 36.738281 18.671875 C 37.917969 18.570312 38.8125 20.320312 38.738281 22.578125 C 38.664062 24.835938 37.652344 26.746094 36.472656 26.847656 C 35.296875 26.953125 34.402344 25.203125 34.472656 22.945312 C 34.546875 20.6875 35.5625 18.773438 36.738281 18.671875" fill-rule="evenodd" style="fill: inherit;"/></g><g id="__id219_sfpovq26fl"><path d="M 45.128906 17.945312 C 46.308594 17.84375 47.203125 19.59375 47.128906 21.851562 C 47.054688 24.109375 46.042969 26.019531 44.863281 26.121094 C 43.6875 26.226562 42.792969 24.476562 42.863281 22.21875 C 42.9375 19.960938 43.953125 18.046875 45.128906 17.945312" fill-rule="evenodd" style="fill: inherit;"/></g><g id="__id220_sfpovq26fl"><path d="M 51.019531 27.613281 C 50.382812 29.933594 49.015625 32.03125 47.191406 33.605469 C 45.335938 35.203125 43.011719 36.265625 40.515625 36.484375 C 38.019531 36.699219 35.753906 36.035156 33.992188 34.746094 C 32.261719 33.480469 31.019531 31.613281 30.53125 29.386719 C 30.355469 29.359375 30.199219 29.292969 30.066406 29.195312 C 29.855469 29.042969 29.707031 28.8125 29.65625 28.539062 C 29.621094 28.351562 29.75 28.148438 29.945312 28.089844 C 30.140625 28.03125 30.332031 28.136719 30.367188 28.328125 C 30.386719 28.441406 30.449219 28.535156 30.535156 28.597656 C 30.617188 28.65625 30.726562 28.691406 30.847656 28.679688 C 30.96875 28.667969 31.082031 28.617188 31.171875 28.542969 C 31.261719 28.464844 31.328125 28.359375 31.355469 28.242188 C 31.40625 28.042969 31.601562 27.90625 31.796875 27.929688 C 31.988281 27.953125 32.105469 28.136719 32.058594 28.332031 C 31.988281 28.613281 31.824219 28.871094 31.601562 29.0625 C 31.503906 29.148438 31.386719 29.222656 31.265625 29.28125 C 31.738281 31.296875 32.878906 32.992188 34.460938 34.148438 C 36.101562 35.347656 38.210938 35.964844 40.539062 35.765625 C 42.867188 35.5625 45.03125 34.574219 46.757812 33.085938 C 48.421875 31.648438 49.679688 29.742188 50.285156 27.632812 C 50.167969 27.597656 50.058594 27.542969 49.960938 27.472656 C 49.753906 27.320312 49.605469 27.089844 49.550781 26.816406 C 49.515625 26.628906 49.648438 26.425781 49.84375 26.367188 C 50.039062 26.308594 50.226562 26.414062 50.261719 26.605469 C 50.285156 26.71875 50.34375 26.808594 50.429688 26.875 C 50.515625 26.933594 50.625 26.96875 50.746094 26.957031 C 50.867188 26.945312 50.980469 26.894531 51.066406 26.820312 C 51.15625 26.742188 51.226562 26.636719 51.253906 26.519531 C 51.304688 26.320312 51.5 26.183594 51.691406 26.207031 C 51.886719 26.230469 52.003906 26.410156 51.957031 26.609375 C 51.886719 26.890625 51.722656 27.148438 51.5 27.339844 C 51.359375 27.460938 51.195312 27.554688 51.019531 27.613281" style="fill: inherit;"/></g><g id="__id221_sfpovq26fl"><path d="M 37.222656 19.5625 C 37.511719 19.535156 37.730469 19.964844 37.714844 20.519531 C 37.695312 21.070312 37.449219 21.539062 37.160156 21.5625 C 36.871094 21.589844 36.652344 21.160156 36.667969 20.609375 C 36.6875 20.054688 36.933594 19.585938 37.222656 19.5625" fill-rule="evenodd" style="fill: rgb(253, 236, 207);"/></g><g id="__id222_sfpovq26fl"><path d="M 45.75 18.824219 C 46.039062 18.796875 46.257812 19.226562 46.238281 19.78125 C 46.222656 20.332031 45.972656 20.800781 45.683594 20.824219 C 45.398438 20.851562 45.175781 20.421875 45.195312 19.871094 C 45.214844 19.316406 45.460938 18.847656 45.75 18.824219" fill-rule="evenodd" style="fill: rgb(253, 236, 207);"/></g><g id="__id223_sfpovq26fl"><path d="M 21.117188 55.242188 C 23.722656 54.84375 38.027344 51.820312 39.726562 51.574219 C 39.898438 51.550781 39.886719 51.527344 39.929688 51.699219 C 40 51.957031 40.03125 52.382812 39.945312 52.660156 C 39.914062 52.765625 39.863281 52.847656 39.792969 52.894531 C 39.472656 53.101562 24.96875 56.070312 21.117188 56.683594 C 20.875 56.664062 20.8125 55.289062 21.117188 55.242188" fill-rule="evenodd" style="fill: rgb(253, 236, 207);"/></g></g></svg>