<svg xmlns="http://www.w3.org/2000/svg" x="0px" y="0px" width="100" height="100" viewBox="0 0 48 48">
    <path fill="#eae7ae" d="M42,45H15c-1.7,0-3-1.3-3-3V15c0-1.7,1.3-3,3-3h27c1.7,0,3,1.3,3,3v27C45,43.7,43.7,45,42,45z"></path>
    <polyline fill="none" stroke="#eb9414" stroke-linecap="round" stroke-linejoin="round" stroke-miterlimit="18" stroke-width="5" points="16.5,23.9 22.5,31.5 36,18"></polyline>
    <path fill="none" stroke="#eb9414" stroke-linecap="round" stroke-linejoin="round" stroke-miterlimit="10" stroke-width="3" d="M40.5,30.9v6.6c0,1.7-1.3,3-3,3h-27c-1.7,0-3-1.3-3-3V24"></path>
    <path fill="none" stroke="#eb9414" stroke-linecap="round" stroke-linejoin="round" stroke-miterlimit="10" stroke-width="3" d="M7.5,17.1v-6.6c0-1.7,1.3-3,3-3h27c1.7,0,3,1.3,3,3v12.8"></path>
</svg>