<svg xmlns="http://www.w3.org/2000/svg" width="18" height="15" viewBox="0 0 18 15" fill="none">
<path fill-rule="evenodd" clip-rule="evenodd" d="M8.16747 0.0160094C7.99134 0.0233232 7.71872 0.0377633 7.56164 0.0480946C7.40455 0.0584431 7.20593 0.0741445 7.12025 0.0830097C7.03457 0.0918749 6.88268 0.107321 6.78271 0.117345C6.68275 0.12737 6.44129 0.157989 6.24612 0.185403C6.05096 0.212817 5.75886 0.259035 5.59702 0.28812C5.43518 0.317204 5.16898 0.371418 5.00546 0.408618C4.84193 0.445801 4.59268 0.506817 4.45155 0.544205C4.31043 0.581592 4.06254 0.655139 3.9007 0.707614C3.73886 0.760106 3.50129 0.843831 3.37276 0.893698C3.24424 0.943565 3.06836 1.01476 2.98192 1.05192C2.89547 1.08909 2.75137 1.15573 2.66169 1.20001C2.57201 1.24428 2.40906 1.33039 2.29958 1.39138C2.1901 1.45234 2.00705 1.56386 1.89281 1.63916C1.77857 1.71448 1.59552 1.84672 1.48604 1.93304C1.37656 2.01937 1.18849 2.19013 1.06814 2.3125C0.947769 2.4349 0.802578 2.59544 0.745509 2.66928C0.68844 2.74313 0.598899 2.86842 0.546555 2.9477C0.494194 3.02699 0.416181 3.1609 0.373219 3.24529C0.33024 3.32968 0.281825 3.42942 0.265641 3.46692C0.249439 3.50443 0.20987 3.61102 0.177692 3.7038C0.145531 3.79657 0.0999207 3.96535 0.0763453 4.07886C0.0527872 4.19237 0.0249365 4.38498 0.0144643 4.50688C0.00120527 4.66142 -0.00265473 5.70651 0.00172455 7.95919C0.00735011 10.8576 0.0108639 11.2021 0.0359279 11.3092C0.0512986 11.3749 0.0848097 11.4938 0.110376 11.5735C0.135959 11.6532 0.195659 11.7971 0.243052 11.8932C0.290445 11.9894 0.364789 12.1198 0.408253 12.183C0.451717 12.2463 0.530804 12.3517 0.583978 12.4174C0.63717 12.483 0.715841 12.5741 0.758803 12.6198C0.801782 12.6655 0.909239 12.7667 0.997586 12.8447C1.08595 12.9227 1.23005 13.0391 1.31781 13.1034C1.40559 13.1677 1.53191 13.2554 1.59855 13.2983C1.66519 13.3412 1.77814 13.4106 1.84954 13.4526C1.92094 13.4946 2.06114 13.5717 2.16111 13.6241C2.26107 13.6764 2.44022 13.7628 2.55922 13.8159C2.67822 13.8691 2.8418 13.9393 2.92272 13.9719C3.00364 14.0046 3.15553 14.0623 3.26025 14.1002C3.36497 14.138 3.4935 14.1828 3.54586 14.1997C3.59822 14.2165 3.73064 14.2583 3.84012 14.2925C3.9496 14.3267 4.1638 14.388 4.31613 14.4288C4.46845 14.4695 4.75276 14.5376 4.94792 14.58C5.14308 14.6225 5.36508 14.669 5.44124 14.6832C5.5174 14.6975 5.72381 14.7319 5.89994 14.7598C6.07606 14.7876 6.34479 14.826 6.49711 14.8452C6.64943 14.8643 6.89479 14.8913 7.04236 14.9051C7.18992 14.9189 7.42749 14.9384 7.57029 14.9484C7.71309 14.9584 8.01687 14.9741 8.24536 14.9833C8.47384 14.9925 8.81267 15 8.99832 15C9.18396 15 9.52279 14.9925 9.75128 14.9833C9.97976 14.9741 10.2835 14.9584 10.4263 14.9484C10.5691 14.9384 10.8067 14.9189 10.9543 14.9051C11.1018 14.8913 11.3472 14.8643 11.4995 14.8452C11.6518 14.826 11.9206 14.7876 12.0967 14.7598C12.2728 14.7319 12.4792 14.6975 12.5554 14.6832C12.6316 14.669 12.8536 14.6225 13.0487 14.58C13.2439 14.5376 13.5282 14.4695 13.6805 14.4288C13.8328 14.388 14.047 14.3267 14.1565 14.2925C14.266 14.2583 14.3984 14.2165 14.4508 14.1997C14.5031 14.1828 14.6317 14.138 14.7364 14.1002C14.8411 14.0623 14.993 14.0046 15.0739 13.9719C15.1548 13.9393 15.3184 13.8691 15.4374 13.8159C15.5564 13.7628 15.7356 13.6764 15.8355 13.6241C15.9355 13.5717 16.0757 13.4946 16.1471 13.4526C16.2185 13.4106 16.3314 13.3411 16.3981 13.2981C16.4647 13.255 16.5621 13.1889 16.6145 13.151C16.6669 13.1132 16.7652 13.0386 16.8329 12.9853C16.9005 12.9321 17.0242 12.8248 17.1076 12.7471C17.191 12.6693 17.3154 12.5364 17.3841 12.4518C17.4527 12.3672 17.5446 12.2463 17.5882 12.183C17.6318 12.1198 17.7062 11.9894 17.7536 11.8932C17.801 11.7971 17.8607 11.6532 17.8863 11.5735C17.9118 11.4938 17.9454 11.3749 17.9607 11.3092C17.9859 11.2018 17.9893 10.8358 17.9944 7.63953L18 4.08919H17.3087H16.6173L16.6102 4.55376C16.6045 4.92342 16.597 5.03923 16.5735 5.12062C16.5574 5.17688 16.5169 5.27977 16.4836 5.34926C16.4503 5.41875 16.3871 5.52525 16.3432 5.58591C16.2992 5.64655 16.204 5.75404 16.1316 5.82476C16.0592 5.89546 15.9437 5.99432 15.875 6.04445C15.8063 6.09457 15.6816 6.17662 15.598 6.2268C15.5144 6.27697 15.358 6.3615 15.2504 6.41465C15.1428 6.46779 14.9482 6.5537 14.8179 6.60554C14.6876 6.65739 14.4641 6.73806 14.3211 6.78479C14.1782 6.83152 13.9133 6.90747 13.7324 6.95355C13.5516 6.99964 13.2975 7.06041 13.1679 7.08861C13.0383 7.11681 12.7735 7.16678 12.5794 7.19965C12.3853 7.23252 12.0824 7.27836 11.9063 7.30155C11.7302 7.32473 11.4342 7.35934 11.2485 7.37847C11.0629 7.39758 10.7591 7.42457 10.5735 7.43845C10.3878 7.45232 10.0295 7.4726 9.77724 7.48351C9.49723 7.49561 9.07244 7.49929 8.68675 7.49295C8.33926 7.48724 7.93812 7.47461 7.79531 7.46487C7.65251 7.45514 7.40715 7.43546 7.25007 7.42116C7.09299 7.40686 6.81257 7.37603 6.62693 7.35268C6.44129 7.3293 6.11414 7.27983 5.89994 7.24273C5.68573 7.20562 5.43648 7.15969 5.34604 7.14066C5.25559 7.12163 5.04354 7.07201 4.8748 7.03037C4.70607 6.98876 4.49966 6.93424 4.4161 6.90921C4.33255 6.8842 4.15125 6.82719 4.01321 6.78254C3.87517 6.73789 3.66486 6.66319 3.54586 6.61654C3.42686 6.56988 3.24381 6.49304 3.13909 6.44578C3.03437 6.39851 2.89416 6.33135 2.82752 6.29654C2.76088 6.26174 2.62593 6.18622 2.52765 6.12873C2.42937 6.07123 2.26579 5.96372 2.16415 5.8898C2.06251 5.81589 1.90508 5.68164 1.8143 5.59145C1.72351 5.50128 1.62386 5.39018 1.59284 5.34457C1.56184 5.29895 1.51323 5.21628 1.48483 5.16086C1.45641 5.10543 1.42068 5.01233 1.4054 4.95398C1.38386 4.87163 1.38007 4.80392 1.38854 4.65179C1.39515 4.53271 1.41611 4.3915 1.44194 4.29214C1.46532 4.20216 1.50103 4.08708 1.52132 4.03641C1.54159 3.98574 1.59357 3.88033 1.63682 3.80218C1.68008 3.72401 1.75977 3.60127 1.8139 3.52941C1.86802 3.45753 1.98192 3.32944 2.06701 3.24475C2.15209 3.16007 2.27621 3.04852 2.34285 2.9969C2.4095 2.94526 2.51922 2.86385 2.58671 2.81598C2.65418 2.76812 2.80218 2.67586 2.91559 2.61095C3.02898 2.54605 3.1802 2.46369 3.2516 2.42792C3.323 2.39217 3.45152 2.33274 3.5372 2.29587C3.62288 2.25897 3.77867 2.19565 3.88339 2.15515C3.98811 2.11462 4.21007 2.03787 4.37664 1.98459C4.54321 1.93132 4.84699 1.84662 5.05171 1.79641C5.25642 1.74619 5.50571 1.68933 5.60568 1.67005C5.70564 1.65077 5.877 1.61928 5.98648 1.60007C6.09596 1.58085 6.2907 1.55042 6.41922 1.5324C6.54774 1.5144 6.75805 1.48794 6.88657 1.47362C7.01509 1.45928 7.25656 1.43608 7.42316 1.42205C7.58977 1.40803 7.93639 1.38761 8.19343 1.3767C8.47516 1.36473 8.91172 1.36086 9.29258 1.36693C9.64006 1.37249 10.0373 1.3849 10.1754 1.39453C10.3134 1.40416 10.5042 1.42019 10.5994 1.43013C10.6946 1.44008 10.8426 1.45631 10.9283 1.4662C11.014 1.47607 11.2189 1.5064 11.3837 1.53359C11.5485 1.56079 11.7977 1.61052 11.9376 1.64412C12.0775 1.67771 12.2932 1.73864 12.4169 1.7795C12.5407 1.82037 12.7131 1.88399 12.8001 1.92088C12.8871 1.95778 13.0324 2.03095 13.123 2.08348C13.2136 2.13602 13.3468 2.22522 13.419 2.2817C13.4912 2.33818 13.5858 2.42849 13.6294 2.48239C13.6729 2.5363 13.7276 2.61672 13.7509 2.66109C13.7742 2.70547 13.8049 2.78574 13.8191 2.83942C13.8333 2.89312 13.8449 2.9808 13.8449 3.03427C13.8449 3.08773 13.8336 3.19006 13.8197 3.26164C13.8058 3.33323 13.7659 3.44924 13.7312 3.51947C13.6883 3.60609 13.6261 3.69097 13.5378 3.78341C13.4663 3.85836 13.3483 3.95843 13.2758 4.00581C13.2033 4.05319 13.0504 4.13655 12.9362 4.19107C12.822 4.24558 12.6311 4.32149 12.5121 4.35977C12.3931 4.39803 12.2023 4.45205 12.088 4.47982C11.9738 4.50758 11.8141 4.54277 11.7332 4.55801C11.6523 4.57327 11.4926 4.60013 11.3784 4.61773C11.2641 4.63532 11.0265 4.66519 10.8504 4.68412C10.6743 4.70302 10.3978 4.72793 10.2359 4.73945C10.0741 4.75098 9.61843 4.76059 9.22334 4.76085C8.79556 4.76111 8.42448 4.7532 8.30594 4.74131C8.19646 4.73032 8.0251 4.71306 7.92513 4.70295C7.82517 4.69286 7.59755 4.66209 7.41934 4.63459C7.2411 4.60711 6.96848 4.55388 6.81351 4.51632C6.65852 4.47877 6.46941 4.42808 6.39325 4.4037C6.31709 4.37932 6.18857 4.33193 6.10765 4.29838C6.02673 4.26484 5.9076 4.20681 5.84295 4.16944C5.77829 4.13207 5.69065 4.06919 5.64822 4.02971C5.60578 3.99023 5.57106 3.94861 5.57106 3.93721C5.57106 3.92582 5.62752 3.8909 5.69655 3.85964C5.76558 3.82839 5.88046 3.78319 5.95186 3.75924C6.02326 3.7353 6.17516 3.69287 6.2894 3.66496C6.40364 3.63705 6.55942 3.60234 6.63558 3.58783C6.71175 3.57332 6.82815 3.55322 6.89426 3.54316C6.96036 3.53311 7.10057 3.51359 7.20583 3.49976C7.31108 3.48593 7.52572 3.46304 7.6828 3.44887C7.83989 3.4347 8.20015 3.41835 8.48336 3.41252L8.99832 3.40193V2.71993V2.0379L8.52664 2.04905C8.26722 2.05518 7.94201 2.068 7.80397 2.07756C7.66593 2.08711 7.44004 2.10664 7.302 2.12097C7.16395 2.13529 6.94207 2.16248 6.80889 2.1814C6.67573 2.20033 6.43789 2.2416 6.28036 2.27312C6.12283 2.30463 5.89608 2.35758 5.77645 2.39077C5.65684 2.42398 5.46743 2.48599 5.35554 2.52858C5.24367 2.57116 5.08864 2.63936 5.01108 2.68014C4.9335 2.7209 4.83136 2.77852 4.7841 2.80817C4.73683 2.83784 4.64829 2.9055 4.58735 2.95854C4.52638 3.01158 4.43617 3.1093 4.38687 3.1757C4.33755 3.24211 4.2768 3.34247 4.25184 3.39873C4.22688 3.45499 4.19643 3.53554 4.18416 3.57774C4.17116 3.62246 4.1623 3.73978 4.16294 3.85904C4.16373 4.01128 4.17358 4.09951 4.2014 4.20393C4.22196 4.28111 4.26468 4.40002 4.29632 4.46818C4.32797 4.53636 4.38306 4.63693 4.41874 4.69168C4.45443 4.74644 4.5394 4.84933 4.60758 4.92032C4.67576 4.99133 4.78876 5.09439 4.85867 5.14933C4.92858 5.2043 5.05856 5.29145 5.14751 5.343C5.23647 5.39456 5.39346 5.47361 5.4964 5.51867C5.59934 5.56373 5.75367 5.62456 5.83935 5.65385C5.92503 5.68315 6.0925 5.73418 6.2115 5.76727C6.33051 5.80036 6.51627 5.84668 6.62432 5.87021C6.73236 5.89374 6.93099 5.9322 7.06571 5.95569C7.20043 5.97918 7.47398 6.01763 7.67363 6.0411C7.87326 6.0646 8.22377 6.09528 8.45255 6.10931C8.68131 6.12336 8.98144 6.13487 9.11948 6.13491C9.25753 6.13494 9.55741 6.12723 9.7859 6.11777C10.0144 6.10831 10.3143 6.09291 10.4523 6.08352C10.5903 6.07414 10.8201 6.05478 10.9629 6.04047C11.1057 6.02617 11.3005 6.00302 11.3957 5.98902C11.4909 5.97502 11.6233 5.9555 11.6899 5.94563C11.7566 5.93576 11.9235 5.90506 12.0609 5.87741C12.1983 5.84977 12.3862 5.80831 12.4783 5.78531C12.5705 5.76229 12.7307 5.71715 12.8343 5.68498C12.938 5.65281 13.089 5.60231 13.1699 5.57278C13.2508 5.54324 13.4183 5.47109 13.542 5.41246C13.6658 5.35381 13.8444 5.25778 13.939 5.19905C14.0336 5.1403 14.1581 5.05652 14.2157 5.01286C14.2733 4.9692 14.3736 4.88408 14.4385 4.82372C14.5035 4.76336 14.6132 4.64436 14.6822 4.55929C14.7513 4.4742 14.8368 4.35702 14.8723 4.29889C14.9078 4.24077 14.9637 4.13613 14.9964 4.06638C15.0291 3.99662 15.0788 3.86985 15.1069 3.78466C15.1349 3.69946 15.1715 3.55476 15.1881 3.4631C15.2078 3.35469 15.2186 3.20705 15.219 3.04071C15.2194 2.86402 15.2101 2.73757 15.1891 2.63155C15.1723 2.54716 15.1388 2.42057 15.1146 2.35025C15.0904 2.27993 15.0353 2.15341 14.9923 2.06909C14.9493 1.98478 14.8904 1.88121 14.8615 1.83893C14.8327 1.79667 14.7618 1.70514 14.7042 1.63554C14.6465 1.56595 14.5444 1.45613 14.4774 1.39146C14.4104 1.32681 14.2855 1.22185 14.1998 1.1582C14.1141 1.09458 13.9661 0.996381 13.8709 0.940019C13.7757 0.883657 13.6433 0.810536 13.5767 0.777547C13.51 0.744558 13.3659 0.681189 13.2564 0.63671C13.1469 0.59223 12.9795 0.53043 12.8843 0.499367C12.7891 0.468305 12.6294 0.420109 12.5294 0.392252C12.4295 0.364395 12.2815 0.326172 12.2006 0.307316C12.1196 0.288461 11.9716 0.257194 11.8717 0.237844C11.7717 0.218511 11.5926 0.187636 11.4736 0.169258C11.3546 0.15088 11.1209 0.120414 10.9543 0.101541C10.7877 0.0826688 10.5423 0.0592444 10.409 0.0494926C10.2758 0.0397239 9.98365 0.0240734 9.75993 0.0146967C9.53621 0.00532008 9.15843 -0.00120944 8.92043 0.000188533C8.68242 0.00158651 8.34359 0.00871265 8.16747 0.0160094ZM1.57321 7.14288C1.65379 7.19554 1.77814 7.27303 1.84954 7.31505C1.92094 7.35709 2.06114 7.4343 2.16111 7.48666C2.26107 7.539 2.44022 7.62531 2.55922 7.67847C2.67822 7.73161 2.8418 7.80183 2.92272 7.8345C3.00364 7.86716 3.15553 7.92487 3.26025 7.96272C3.36497 8.00058 3.4935 8.04535 3.54586 8.06222C3.59822 8.07908 3.73064 8.12086 3.84012 8.15508C3.9496 8.18929 4.1638 8.2506 4.31613 8.29133C4.46845 8.33206 4.75276 8.40012 4.94792 8.4426C5.14308 8.48509 5.36508 8.53151 5.44124 8.5458C5.5174 8.56008 5.72381 8.5945 5.89994 8.62231C6.07606 8.65012 6.34479 8.68856 6.49711 8.70772C6.64943 8.7269 6.89479 8.75389 7.04236 8.76768C7.18992 8.78149 7.42749 8.80096 7.57029 8.81095C7.71309 8.82096 8.01687 8.83666 8.24536 8.84585C8.47384 8.85504 8.80878 8.86256 8.98966 8.86256C9.17055 8.86256 9.50548 8.85507 9.73397 8.84593C9.96245 8.83679 10.2779 8.82108 10.435 8.81102C10.5921 8.80096 10.9231 8.77387 11.1706 8.75082C11.4182 8.72777 11.7142 8.6973 11.8284 8.68312C11.9426 8.66894 12.1452 8.64197 12.2784 8.62318C12.4117 8.60441 12.6545 8.56624 12.8178 8.53836C12.9812 8.51049 13.2422 8.46122 13.3977 8.42889C13.5533 8.39657 13.8026 8.3393 13.9519 8.30164C14.1012 8.26398 14.292 8.21393 14.376 8.19042C14.46 8.16693 14.6221 8.11759 14.7364 8.08078C14.8506 8.04399 15.0181 7.98681 15.1085 7.95374C15.199 7.92066 15.3578 7.85832 15.4616 7.81522C15.5653 7.7721 15.7561 7.68447 15.8856 7.62051C16.0152 7.55654 16.1951 7.45983 16.2856 7.40559C16.376 7.35138 16.4826 7.28498 16.5224 7.25804C16.5622 7.2311 16.5992 7.20906 16.6046 7.20906C16.61 7.20906 16.6145 8.06285 16.6145 9.10638C16.6145 10.7317 16.6108 11.0177 16.5887 11.1012C16.5745 11.1548 16.5398 11.2437 16.5115 11.2989C16.4833 11.354 16.4348 11.4364 16.4038 11.482C16.3728 11.5276 16.2731 11.6387 16.1823 11.7289C16.0916 11.8191 15.9341 11.9533 15.8325 12.0272C15.7308 12.1012 15.5673 12.2092 15.469 12.2673C15.3707 12.3254 15.2766 12.378 15.26 12.3842C15.2313 12.3948 15.2297 12.3205 15.2297 10.9701V9.5447H14.5373H13.8449V11.2557V12.9668L13.7454 12.9962C13.6907 13.0123 13.5992 13.04 13.542 13.0576C13.4849 13.0752 13.333 13.116 13.2045 13.1483C13.076 13.1806 12.8812 13.2262 12.7718 13.2498C12.6623 13.2733 12.5474 13.2977 12.5165 13.3039L12.4602 13.3151V12.4528V11.5905H11.7678H11.0754V12.5599V13.5293L10.9413 13.5414C10.8675 13.5479 10.6844 13.564 10.5344 13.577C10.3843 13.59 10.1331 13.606 9.97612 13.6125L9.69069 13.6244V11.9255V10.2266H8.99832H8.30594V11.9255V13.6244L8.02051 13.6125C7.86353 13.606 7.61232 13.59 7.46228 13.577C7.31224 13.564 7.12913 13.5479 7.05534 13.5414L6.92119 13.5293V12.5599V11.5905H6.22881H5.53644V12.4528V13.3151L5.48018 13.3039C5.44923 13.2977 5.33435 13.2733 5.22487 13.2498C5.11539 13.2262 4.92066 13.1806 4.79213 13.1483C4.66361 13.116 4.51172 13.0752 4.4546 13.0576C4.39748 13.04 4.30597 13.0123 4.25122 12.9962L4.15169 12.9668V11.2557V9.5447H3.45931H2.76693V10.9701C2.76693 12.3205 2.76534 12.3948 2.73664 12.3842C2.71999 12.378 2.62593 12.3254 2.52765 12.2673C2.42937 12.2092 2.26579 12.1012 2.16415 12.0272C2.06251 11.9533 1.90508 11.8191 1.8143 11.7289C1.72351 11.6387 1.62386 11.5276 1.59284 11.482C1.56184 11.4364 1.51335 11.354 1.48511 11.2989C1.45686 11.2437 1.42213 11.1548 1.40796 11.1012C1.38584 11.0175 1.38218 10.7209 1.38218 9.01176C1.38218 7.39298 1.38635 7.02238 1.40444 7.03346C1.41668 7.04096 1.49262 7.0902 1.57321 7.14288Z" fill="#fff"/>
</svg>